HIERARCHY
ROOT Hips
{
	OFFSET -0.001795 -0.223333 0.028219
	CHANNELS 6 Xposition Yposition Zposition Zrotation Yrotation Xrotation 
	JOINT LeftUpLeg
	{
		OFFSET 0.069520 -0.091406 -0.006815
		CHANNELS 3 Zrotation Yrotation Xrotation
		JOINT LeftLeg
		{
			OFFSET 0.034277 -0.375199 -0.004496
			CHANNELS 3 Zrotation Yrotation Xrotation
			JOINT LeftFoot
			{
				OFFSET -0.013596 -0.397961 -0.043693
				CHANNELS 3 Zrotation Yrotation Xrotation
				JOINT LeftToe
				{
					OFFSET 0.026358 -0.055791 0.119288
					CHANNELS 3 Zrotation Yrotation Xrotation
					End Site
					{
						OFFSET 0.000000 0.000000 0.000000
					}
				}
			}
		}
	}
	JOINT RightUpLeg
	{
		OFFSET -0.067670 -0.090522 -0.004320
		CHANNELS 3 Zrotation Yrotation Xrotation
		JOINT RightLeg
		{
			OFFSET -0.038290 -0.382569 -0.008850
			CHANNELS 3 Zrotation Yrotation Xrotation
			JOINT RightFoot
			{
				OFFSET 0.015774 -0.398415 -0.042312
				CHANNELS 3 Zrotation Yrotation Xrotation
				JOINT RightToe
				{
					OFFSET -0.025372 -0.048144 0.123348
					CHANNELS 3 Zrotation Yrotation Xrotation
					End Site
					{
						OFFSET 0.000000 0.000000 0.000000
					}
				}
			}
		}
	}
	JOINT Spine
	{
		OFFSET -0.002533 0.108963 -0.026696
		CHANNELS 3 Zrotation Yrotation Xrotation
		JOINT Spine1
		{
			OFFSET 0.005487 0.135180 0.001092
			CHANNELS 3 Zrotation Yrotation Xrotation
			JOINT Spine2
			{
				OFFSET 0.001457 0.052922 0.025425
				CHANNELS 3 Zrotation Yrotation Xrotation
				JOINT Neck
				{
					OFFSET -0.002778 0.213870 -0.042857
					CHANNELS 3 Zrotation Yrotation Xrotation
					JOINT Head
					{
						OFFSET 0.005152 0.064970 0.051349
						CHANNELS 3 Zrotation Yrotation Xrotation
						End Site
						{
							OFFSET 0.000000 0.000000 0.000000
						}
					}
				}
				JOINT LeftShoulder
				{
					OFFSET 0.078845 0.121749 -0.034090
					CHANNELS 3 Zrotation Yrotation Xrotation
					JOINT LeftArm
					{
						OFFSET 0.090977 0.030469 -0.008868
						CHANNELS 3 Zrotation Yrotation Xrotation
						JOINT LeftForeArm
						{
							OFFSET 0.259612 -0.012772 -0.027456
							CHANNELS 3 Zrotation Yrotation Xrotation
							JOINT LeftHand
							{
								OFFSET 0.249234 0.008986 -0.001171
								CHANNELS 3 Zrotation Yrotation Xrotation
								End Site
								{
									OFFSET 0.000000 0.000000 0.000000
								}
							}
						}
					}
				}
				JOINT RightShoulder
				{
					OFFSET -0.081759 0.118833 -0.038615
					CHANNELS 3 Zrotation Yrotation Xrotation
					JOINT RightArm
					{
						OFFSET -0.096012 0.032551 -0.009143
						CHANNELS 3 Zrotation Yrotation Xrotation
						JOINT RightForeArm
						{
							OFFSET -0.253742 -0.013329 -0.021401
							CHANNELS 3 Zrotation Yrotation Xrotation
							JOINT RightHand
							{
								OFFSET -0.255298 0.007772 -0.005559
								CHANNELS 3 Zrotation Yrotation Xrotation
								End Site
								{
									OFFSET 0.000000 0.000000 0.000000
								}
							}
						}
					}
				}
			}
		}
	}
}
MOTION
Frames: 5
Frame Time: 0.050000
0.016969 0.916597 0.076768 -3.698665 -8.011177 7.427426 14.180049 1.353760 -25.904890 -11.200690 5.314219 36.348744 12.024461 23.646568 6.161044 0.000000 0.000000 0.000000 -15.848129 0.458385 -27.121129 10.610106 -1.704602 21.561623 -6.145490 -17.380883 11.739054 0.000000 0.000000 0.000000 7.524545 -2.515668 25.631047 -6.394539 1.903259 -26.646908 -0.605067 4.326991 29.101031 15.260354 -3.800099 -42.989081 0.000000 0.000000 0.000000 -25.788262 -18.374928 10.319157 -34.889768 -23.727415 0.049222 -1.981774 -41.654132 2.769276 0.000000 0.000000 0.000000 32.901577 5.432237 1.437626 39.938224 23.411324 1.115001 -2.253424 38.411774 1.130568 0.000000 0.000000 0.000000 
0.014354 0.921377 0.079999 -3.800831 -7.633548 7.508197 14.012290 1.186253 -24.757244 -10.766111 4.777809 34.341837 11.916888 23.468495 6.359712 0.000000 0.000000 0.000000 -15.654974 0.457530 -25.813559 10.237889 -1.586790 19.986277 -6.473158 -17.989850 12.461126 0.000000 0.000000 0.000000 7.366245 -2.405361 24.264780 -6.617048 1.938769 -27.475768 -0.609346 4.602605 29.336462 15.494178 -3.980691 -42.404396 0.000000 0.000000 0.000000 -25.136183 -17.476959 9.512693 -36.114563 -22.925867 -0.066139 -4.256635 -39.640703 3.408258 0.000000 0.000000 0.000000 32.652181 5.011665 1.364991 40.586451 23.516262 1.122403 -1.411504 37.265559 1.403381 0.000000 0.000000 0.000000 
0.010096 0.926668 0.083696 -3.703035 -7.519017 7.438390 13.818842 1.031902 -23.361286 -10.468280 4.323546 31.919272 11.820963 23.309808 6.506017 0.000000 0.000000 0.000000 -15.045640 0.536683 -24.586190 9.481011 -1.371688 18.950836 -6.644959 -18.271614 12.526848 0.000000 0.000000 0.000000 7.082252 -2.226915 22.671869 -6.952426 2.011968 -27.595611 -0.402857 4.489574 29.156897 15.478904 -4.206076 -41.256601 0.000000 0.000000 0.000000 -24.680612 -16.854418 9.091562 -36.850776 -21.728202 -0.346948 -5.447701 -38.687935 3.736760 0.000000 0.000000 0.000000 32.143182 4.274367 0.807149 41.707014 22.586147 0.958786 -0.404632 37.433077 1.743389 0.000000 0.000000 0.000000 
0.004524 0.931096 0.087832 -3.690709 -7.555582 7.473963 13.676898 0.920651 -22.112061 -9.584825 3.708341 29.795102 11.607989 22.919722 6.876662 0.000000 0.000000 0.000000 -14.508016 0.613073 -23.271866 9.028893 -1.228709 17.589085 -7.062694 -19.019907 12.900615 0.000000 0.000000 0.000000 7.094725 -2.096627 20.921729 -7.151707 2.048463 -28.139839 -0.567180 4.283793 29.394009 15.353951 -4.310306 -40.688052 0.000000 0.000000 0.000000 -24.069170 -15.760287 8.466644 -37.873735 -21.108174 -0.521691 -6.637028 -37.248570 4.016104 0.000000 0.000000 0.000000 31.280563 3.504835 0.178226 43.572064 21.180558 0.655381 1.034078 37.666017 2.237124 0.000000 0.000000 0.000000 
-0.002301 0.934412 0.092148 -3.652671 -7.625619 7.196842 13.710777 0.844351 -20.610824 -9.299976 3.372627 27.645490 11.616570 22.927531 7.017942 0.000000 0.000000 0.000000 -13.914643 0.678370 -21.991573 8.583363 -1.104214 16.782058 -7.223008 -19.307155 13.236100 0.000000 0.000000 0.000000 7.132958 -2.003807 19.736445 -7.400465 2.105670 -28.164200 -0.586431 3.871200 29.380667 15.230709 -4.409738 -40.210502 0.000000 0.000000 0.000000 -23.669996 -15.188885 8.234324 -38.450284 -20.321343 -0.761383 -6.930023 -37.165868 4.142022 0.000000 0.000000 0.000000 30.556841 2.592134 -0.636111 44.885513 19.493478 0.226137 2.007540 38.316086 2.578538 0.000000 0.000000 0.000000 
